<mxfile host="app.diagrams.net" agent="Mozilla/5.0 (Windows NT 10.0; Win64; x64) AppleWebKit/537.36 (KHTML, like Gecko) Chrome/128.0.0.0 Safari/537.36" version="24.7.12">
  <diagram name="Página-1" id="0suaFkBcVlFf32EGuQcj">
    <mxGraphModel dx="2073" dy="454" grid="1" gridSize="10" guides="1" tooltips="1" connect="1" arrows="1" fold="1" page="1" pageScale="1" pageWidth="827" pageHeight="1169" math="0" shadow="0">
      <root>
        <mxCell id="0" />
        <mxCell id="1" parent="0" />
        <mxCell id="movMKdNc91VVW4xAMc22-5" value="" style="rounded=1;whiteSpace=wrap;html=1;arcSize=18;" parent="1" vertex="1">
          <mxGeometry x="80" y="170" width="770" height="750" as="geometry" />
        </mxCell>
        <mxCell id="movMKdNc91VVW4xAMc22-1" value="Psicólogo" style="shape=umlActor;html=1;verticalLabelPosition=bottom;verticalAlign=top;align=center;" parent="1" vertex="1">
          <mxGeometry x="-170" y="550" width="30" height="60" as="geometry" />
        </mxCell>
        <mxCell id="movMKdNc91VVW4xAMc22-4" value="Gerenciar teleconsultas" style="shape=ellipse;html=1;strokeWidth=3;fontStyle=1;whiteSpace=wrap;align=center;perimeter=ellipsePerimeter;" parent="1" vertex="1">
          <mxGeometry x="160" y="320" width="120" height="60" as="geometry" />
        </mxCell>
        <mxCell id="movMKdNc91VVW4xAMc22-6" value="" style="endArrow=classic;html=1;rounded=0;exitX=0.5;exitY=0.5;exitDx=0;exitDy=0;exitPerimeter=0;" parent="1" source="movMKdNc91VVW4xAMc22-1" target="movMKdNc91VVW4xAMc22-4" edge="1">
          <mxGeometry width="50" height="50" relative="1" as="geometry">
            <mxPoint x="340" y="280" as="sourcePoint" />
            <mxPoint x="390" y="230" as="targetPoint" />
          </mxGeometry>
        </mxCell>
        <mxCell id="movMKdNc91VVW4xAMc22-14" value="Evoluir dados dos pacientes" style="shape=ellipse;html=1;strokeWidth=3;fontStyle=1;whiteSpace=wrap;align=center;perimeter=ellipsePerimeter;" parent="1" vertex="1">
          <mxGeometry x="460" y="430" width="130" height="70" as="geometry" />
        </mxCell>
        <mxCell id="movMKdNc91VVW4xAMc22-16" value="Gerenciar histórico de&amp;nbsp; pagamentos" style="shape=ellipse;html=1;strokeWidth=3;fontStyle=1;whiteSpace=wrap;align=center;perimeter=ellipsePerimeter;" parent="1" vertex="1">
          <mxGeometry x="190" y="585" width="130" height="70" as="geometry" />
        </mxCell>
        <mxCell id="movMKdNc91VVW4xAMc22-17" value="" style="endArrow=classic;html=1;rounded=0;entryX=0.09;entryY=0.295;entryDx=0;entryDy=0;entryPerimeter=0;exitX=0.367;exitY=0.633;exitDx=0;exitDy=0;exitPerimeter=0;" parent="1" source="movMKdNc91VVW4xAMc22-1" target="movMKdNc91VVW4xAMc22-16" edge="1">
          <mxGeometry width="50" height="50" relative="1" as="geometry">
            <mxPoint x="-20" y="380" as="sourcePoint" />
            <mxPoint x="196" y="488" as="targetPoint" />
          </mxGeometry>
        </mxCell>
        <mxCell id="movMKdNc91VVW4xAMc22-18" value="Emitir recibos e contrato" style="shape=ellipse;html=1;strokeWidth=3;fontStyle=1;whiteSpace=wrap;align=center;perimeter=ellipsePerimeter;" parent="1" vertex="1">
          <mxGeometry x="190" y="700" width="130" height="70" as="geometry" />
        </mxCell>
        <mxCell id="movMKdNc91VVW4xAMc22-19" value="" style="endArrow=classic;html=1;rounded=0;entryX=0.033;entryY=0.314;entryDx=0;entryDy=0;entryPerimeter=0;exitX=0.411;exitY=0.633;exitDx=0;exitDy=0;exitPerimeter=0;" parent="1" source="movMKdNc91VVW4xAMc22-1" target="movMKdNc91VVW4xAMc22-18" edge="1">
          <mxGeometry width="50" height="50" relative="1" as="geometry">
            <mxPoint x="-40" y="360" as="sourcePoint" />
            <mxPoint x="191" y="513" as="targetPoint" />
          </mxGeometry>
        </mxCell>
        <mxCell id="movMKdNc91VVW4xAMc22-20" value="executar consulta agendada" style="shape=ellipse;html=1;strokeWidth=3;fontStyle=1;whiteSpace=wrap;align=center;perimeter=ellipsePerimeter;" parent="1" vertex="1">
          <mxGeometry x="470" y="315" width="140" height="70" as="geometry" />
        </mxCell>
        <mxCell id="movMKdNc91VVW4xAMc22-21" value="&amp;lt;&amp;lt;include&amp;gt;&amp;gt;" style="html=1;verticalAlign=bottom;labelBackgroundColor=none;endArrow=open;endFill=0;dashed=1;rounded=0;exitX=1;exitY=0.5;exitDx=0;exitDy=0;entryX=0;entryY=0.5;entryDx=0;entryDy=0;" parent="1" source="movMKdNc91VVW4xAMc22-4" target="movMKdNc91VVW4xAMc22-20" edge="1">
          <mxGeometry x="-0.2398" y="3" width="160" relative="1" as="geometry">
            <mxPoint x="440" y="350" as="sourcePoint" />
            <mxPoint x="600" y="350" as="targetPoint" />
            <mxPoint as="offset" />
          </mxGeometry>
        </mxCell>
        <mxCell id="movMKdNc91VVW4xAMc22-29" value="Gerenciar pacientes" style="shape=ellipse;html=1;strokeWidth=3;fontStyle=1;whiteSpace=wrap;align=center;perimeter=ellipsePerimeter;" parent="1" vertex="1">
          <mxGeometry x="190" y="470" width="130" height="70" as="geometry" />
        </mxCell>
        <mxCell id="movMKdNc91VVW4xAMc22-30" value="" style="endArrow=classic;html=1;rounded=0;entryX=0.013;entryY=0.619;entryDx=0;entryDy=0;entryPerimeter=0;" parent="1" source="movMKdNc91VVW4xAMc22-1" target="movMKdNc91VVW4xAMc22-29" edge="1">
          <mxGeometry width="50" height="50" relative="1" as="geometry">
            <mxPoint x="-30" y="322" as="sourcePoint" />
            <mxPoint x="196" y="370" as="targetPoint" />
          </mxGeometry>
        </mxCell>
        <mxCell id="movMKdNc91VVW4xAMc22-40" value="&lt;h1&gt;&lt;font face=&quot;Times New Roman&quot; style=&quot;font-size: 24px;&quot;&gt;Sistema de gestão de clínica&lt;/font&gt;&lt;/h1&gt;" style="text;html=1;align=center;verticalAlign=middle;resizable=0;points=[];autosize=1;strokeColor=none;fillColor=none;" parent="1" vertex="1">
          <mxGeometry x="310" y="195" width="310" height="70" as="geometry" />
        </mxCell>
        <mxCell id="0xaNJEkDfHDNSUTplCoM-1" value="Solicitar cadastro" style="shape=ellipse;html=1;strokeWidth=3;fontStyle=1;whiteSpace=wrap;align=center;perimeter=ellipsePerimeter;" parent="1" vertex="1">
          <mxGeometry x="200" y="810" width="130" height="70" as="geometry" />
        </mxCell>
        <mxCell id="0xaNJEkDfHDNSUTplCoM-2" value="" style="endArrow=classic;html=1;rounded=0;entryX=0;entryY=0.5;entryDx=0;entryDy=0;exitX=0.5;exitY=0.5;exitDx=0;exitDy=0;exitPerimeter=0;" parent="1" source="movMKdNc91VVW4xAMc22-1" target="0xaNJEkDfHDNSUTplCoM-1" edge="1">
          <mxGeometry width="50" height="50" relative="1" as="geometry">
            <mxPoint x="-148" y="598" as="sourcePoint" />
            <mxPoint x="184" y="652" as="targetPoint" />
          </mxGeometry>
        </mxCell>
        <mxCell id="0xaNJEkDfHDNSUTplCoM-3" value="Administrador" style="shape=umlActor;html=1;verticalLabelPosition=bottom;verticalAlign=top;align=center;" parent="1" vertex="1">
          <mxGeometry x="930" y="780" width="30" height="60" as="geometry" />
        </mxCell>
        <mxCell id="0xaNJEkDfHDNSUTplCoM-4" value="" style="endArrow=classic;html=1;rounded=0;entryX=1;entryY=0.5;entryDx=0;entryDy=0;exitX=0.5;exitY=0.5;exitDx=0;exitDy=0;exitPerimeter=0;" parent="1" source="0xaNJEkDfHDNSUTplCoM-3" target="0xaNJEkDfHDNSUTplCoM-5" edge="1">
          <mxGeometry width="50" height="50" relative="1" as="geometry">
            <mxPoint x="90" y="670" as="sourcePoint" />
            <mxPoint x="585" y="875" as="targetPoint" />
          </mxGeometry>
        </mxCell>
        <mxCell id="0xaNJEkDfHDNSUTplCoM-5" value="Validar cadastro e CRP" style="shape=ellipse;html=1;strokeWidth=3;fontStyle=1;whiteSpace=wrap;align=center;perimeter=ellipsePerimeter;" parent="1" vertex="1">
          <mxGeometry x="510" y="800" width="120" height="80" as="geometry" />
        </mxCell>
        <mxCell id="0xaNJEkDfHDNSUTplCoM-6" value="&amp;lt;&amp;lt;include&amp;gt;&amp;gt;" style="html=1;verticalAlign=bottom;labelBackgroundColor=none;endArrow=open;endFill=0;dashed=1;rounded=0;exitX=1;exitY=0.5;exitDx=0;exitDy=0;entryX=0;entryY=0.5;entryDx=0;entryDy=0;" parent="1" source="0xaNJEkDfHDNSUTplCoM-1" target="0xaNJEkDfHDNSUTplCoM-5" edge="1">
          <mxGeometry x="-0.2398" y="3" width="160" relative="1" as="geometry">
            <mxPoint x="340" y="710" as="sourcePoint" />
            <mxPoint x="520" y="710" as="targetPoint" />
            <mxPoint as="offset" />
          </mxGeometry>
        </mxCell>
        <mxCell id="0xaNJEkDfHDNSUTplCoM-7" value="Enviar tarefas para evolução e acompanhamento" style="shape=ellipse;html=1;strokeWidth=3;fontStyle=1;whiteSpace=wrap;align=center;perimeter=ellipsePerimeter;" parent="1" vertex="1">
          <mxGeometry x="435" y="540" width="155" height="80" as="geometry" />
        </mxCell>
        <mxCell id="0xaNJEkDfHDNSUTplCoM-8" value="&amp;lt;&amp;lt;extend&amp;gt;&amp;gt;" style="html=1;verticalAlign=bottom;labelBackgroundColor=none;endArrow=open;endFill=0;dashed=1;rounded=0;exitX=0.013;exitY=0.619;exitDx=0;exitDy=0;entryX=0.972;entryY=0.362;entryDx=0;entryDy=0;exitPerimeter=0;entryPerimeter=0;" parent="1" source="movMKdNc91VVW4xAMc22-14" target="movMKdNc91VVW4xAMc22-29" edge="1">
          <mxGeometry x="-0.17" y="-9" width="160" relative="1" as="geometry">
            <mxPoint x="250" y="360" as="sourcePoint" />
            <mxPoint x="470" y="365" as="targetPoint" />
            <mxPoint as="offset" />
          </mxGeometry>
        </mxCell>
        <mxCell id="0xaNJEkDfHDNSUTplCoM-9" value="&amp;lt;&amp;lt;extend&amp;gt;&amp;gt;" style="html=1;verticalAlign=bottom;labelBackgroundColor=none;endArrow=open;endFill=0;dashed=1;rounded=0;exitX=0;exitY=0.417;exitDx=0;exitDy=0;entryX=1;entryY=1;entryDx=0;entryDy=0;exitPerimeter=0;" parent="1" source="0xaNJEkDfHDNSUTplCoM-7" target="movMKdNc91VVW4xAMc22-29" edge="1">
          <mxGeometry x="-0.1553" y="-5" width="160" relative="1" as="geometry">
            <mxPoint x="310" y="475" as="sourcePoint" />
            <mxPoint x="445" y="425" as="targetPoint" />
            <mxPoint x="1" as="offset" />
          </mxGeometry>
        </mxCell>
      </root>
    </mxGraphModel>
  </diagram>
</mxfile>
